HIERARCHY
ROOT Hips
{
    OFFSET 0.000000 0.000000 0.000000
    CHANNELS 6 Xposition Yposition Zposition Zrotation Xrotation Yrotation
        JOINT Chest
        {
            OFFSET -0.000000 31.571314 -0.000000
            CHANNELS 3 Zrotation Xrotation Yrotation
            JOINT Neck
            {
                OFFSET -0.000000 23.394884 0.000000
                CHANNELS 3 Zrotation Xrotation Yrotation
                JOINT Head
                {
                    OFFSET -0.000000 10.877778 0.000000
                    CHANNELS 3 Zrotation Xrotation Yrotation
                    End Site
                    {
                        OFFSET -0.000000 16.811111 0.000000
                    }
                }
            }
            JOINT LeftCollar
            {
                OFFSET -0.000000 23.394884 0.000000
                CHANNELS 3 Zrotation Xrotation Yrotation
                JOINT LeftShoulder
                {
                    OFFSET 21.500002 -0.000000 0.000000
                    CHANNELS 3 Zrotation Xrotation Yrotation
                    JOINT LeftElbow
                    {
                        OFFSET 24.792776 0.000000 0.000000
                        CHANNELS 3 Zrotation Xrotation Yrotation
                        JOINT LeftWrist
                        {
                            OFFSET 26.439411 0.000000 0.000000
                            CHANNELS 3 Zrotation Xrotation Yrotation
                            End Site
                            {
                                OFFSET 0.000000 -14.833334 0.000000
                            }
                        }
                    }
                }
            }
            JOINT RightCollar
            {
                OFFSET -0.000000 23.394884 0.000000
                CHANNELS 3 Zrotation Xrotation Yrotation
                JOINT RightShoulder
                {
                    OFFSET -21.500002 0.000000 0.000000
                    CHANNELS 3 Zrotation Xrotation Yrotation
                    JOINT RightElbow
                    {
                        OFFSET -24.792776 0.000000 0.000000
                        CHANNELS 3 Zrotation Xrotation Yrotation
                        JOINT RightWrist
                        {
                            OFFSET -26.439411 0.000000 0.000000
                            CHANNELS 3 Zrotation Xrotation Yrotation
                            End Site
                            {
                                OFFSET -0.000000 -14.833334 0.000000
                            }
                        }
                    }
                }
            }
        }
    JOINT LeftHip
    {
        OFFSET 11.866667 0.000000 0.000000
        CHANNELS 3 Zrotation Xrotation Yrotation
        JOINT LeftKnee
        {
            OFFSET -0.000000 -38.580112 0.000000
            CHANNELS 3 Zrotation Xrotation Yrotation
            JOINT LeftAnkle
            {
                OFFSET -0.000000 -41.767254 0.000000
                CHANNELS 3 Zrotation Xrotation Yrotation
                End Site
                {
                    OFFSET -0.000000 -4.944444 16.811111
                }
            }
        }
    }
    JOINT RightHip
    {
        OFFSET -11.866667 0.000000 0.000000
        CHANNELS 3 Zrotation Xrotation Yrotation
        JOINT RightKnee
        {
            OFFSET -0.000000 -38.580112 0.000000
            CHANNELS 3 Zrotation Xrotation Yrotation
            JOINT RightAnkle
            {
                OFFSET -0.000000 -41.767254 0.000000
                CHANNELS 3 Zrotation Xrotation Yrotation
                End Site
                {
                    OFFSET -0.000000 -4.944444 16.811111
                }
            }
        }
    }
}
MOTION
Frames:    6
Frame Time:    0.010000
-89.974594    90.427963    -68.311203    0.491406    -1.803382    65.779083    3.655326    16.355846    12.670698    -3.482122    2.853887    -15.668431    7.264217    -13.053754    -15.179380    -18.602282    -0.950117    5.966859    -21.713190    39.146820    -54.260777    20.465687    -11.223272    -57.236626    159.096542    20.587622    12.529422    12.021237    1.910141    18.176903    -37.500263    45.359814    110.153564    -29.657721    -4.691776    17.488844    -140.827667    39.034214    -41.588093    19.604376    -15.295760    5.869044    -11.514471    39.699738    2.432973    -7.680968    -3.109324    12.319897    -9.794494    -15.840242    -3.182163    6.532456    33.760029    -2.951733    3.075185    -4.358320    -10.736223    
-90.094040    90.509811    -68.452957    0.659945    -1.909711    65.815109    4.358262    16.000206    13.434839    1.376380    5.507377    -19.222843    3.214052    -17.182796    -18.731709    -18.231827    -0.407858    -0.720146    -22.061773    40.616714    -51.289970    20.243584    -11.231258    -58.467194    160.654587    21.465975    11.886581    12.890913    1.744552    11.990023    -36.595272    44.250610    109.736359    -29.677717    -4.603045    16.945704    -140.251709    38.592152    -41.770649    19.511051    -14.797115    5.577478    -10.703666    39.593655    1.822455    -4.989590    0.516064    11.876934    -10.463447    -15.954334    -3.373929    7.453418    34.050541    -4.160505    3.859712    -3.884020    -9.472235    
-90.247787    90.449356    -68.623421    0.376292    -2.171084    65.429955    4.988518    16.101446    14.211512    1.264403    5.629992    -19.364285    2.858773    -16.904358    -18.880106    -17.699211    -0.158436    -0.622181    -23.390806    40.321632    -49.975964    20.980467    -12.125838    -59.069679    159.308929    20.691078    12.773038    12.800976    1.542132    12.159068    -35.033253    44.375641    109.338234    -28.743542    -4.456922    17.782949    -141.742065    38.083324    -40.254871    19.784168    -14.228458    4.970504    -10.242244    38.511757    1.480746    -11.344688    -0.003471    13.218081    -11.050107    -16.965796    -3.205708    8.801088    35.050789    -5.736110    5.810257    -3.535918    -7.722145    
-90.356155    90.436195    -68.755226    0.298682    -2.313192    65.237442    5.362031    16.187073    14.802837    1.467368    5.880219    -19.609327    2.607062    -16.972860    -19.149338    -17.497299    -0.019528    -0.726400    -23.759487    40.230591    -49.129368    21.549170    -12.650737    -59.631523    159.233139    20.911745    12.929479    12.773382    1.439170    12.086711    -34.306694    44.286011    109.295921    -28.173632    -4.435140    18.141172    -142.303101    37.599152    -39.565342    19.855301    -13.788179    4.619153    -9.790199    37.910488    1.073267    -12.238267    0.345060    13.399070    -11.560624    -17.513138    -3.194610    9.711287    35.676014    -6.771235    6.770387    -3.176174    -6.539502    
-90.479515    90.401497    -68.911484    0.200786    -2.473008    64.992210    5.758691    16.285179    15.488450    1.546870    6.131991    -19.784122    2.445004    -16.927803    -19.341009    -17.274036    0.043446    -0.629105    -24.178049    40.181442    -48.151211    22.164223    -13.206606    -60.285645    159.188705    21.254210    13.087950    12.730408    1.394874    12.206975    -33.578503    44.156322    109.294037    -27.607834    -4.425101    18.514393    -142.876343    37.064182    -38.825695    19.934860    -13.274511    4.238079    -9.297972    37.190617    0.509508    -13.059185    0.451830    13.585093    -12.176343    -18.202702    -3.189635    10.770681    36.478397    -7.874349    7.893728    -2.772892    -5.231822    
-90.614197    90.335205    -69.089035    0.085598    -2.644642    64.698242    6.177257    16.375223    16.258230    1.581955    6.416804    -19.971624    2.343682    -16.802217    -19.540909    -17.024954    0.085232    -0.498262    -24.641541    40.179043    -47.029922    22.792318    -13.788820    -61.025524    159.136978    21.691183    13.242741    12.713077    1.356035    12.357841    -32.955528    43.998146    109.403397    -27.132753    -4.432007    18.848114    -143.373077    36.513123    -38.108631    20.023184    -12.708623    3.861683    -8.793629    36.397175    -0.225353    -13.764932    0.245850    13.789444    -12.896323    -19.037706    -3.202423    11.951716    37.474876    -8.956010    9.212797    -2.351530    -3.878522    
